<svg width="18.000000" height="18.000000" viewBox="0 0 18 18" fill="none" xmlns="http://www.w3.org/2000/svg" xmlns:xlink="http://www.w3.org/1999/xlink">
	<desc>
			Created with Pixso.
	</desc>
	<defs/>
	<path id="call" d="M16.95 18C14.86 18 12.8 17.54 10.77 16.63C8.74 15.72 6.89 14.44 5.22 12.77C3.55 11.1 2.27 9.25 1.36 7.22C0.45 5.19 0 3.13 0 1.04C0 0.75 0.1 0.5 0.29 0.29C0.5 0.1 0.75 0 1.04 0L5.1 0C5.33 0 5.54 0.07 5.72 0.23C5.9 0.39 6.01 0.58 6.04 0.79L6.7 4.29C6.73 4.56 6.72 4.79 6.67 4.97C6.62 5.15 6.53 5.31 6.39 5.45L3.97 7.89C4.3 8.51 4.7 9.11 5.16 9.68C5.62 10.26 6.12 10.81 6.67 11.35C7.19 11.86 7.73 12.34 8.29 12.78C8.86 13.22 9.46 13.63 10.1 14L12.45 11.65C12.6 11.5 12.79 11.38 13.03 11.31C13.27 11.23 13.51 11.21 13.75 11.25L17.2 11.95C17.43 12.01 17.62 12.13 17.77 12.31C17.92 12.48 18 12.68 18 12.9L18 16.95C18 17.25 17.9 17.5 17.7 17.7C17.5 17.9 17.25 18 16.95 18Z" fill="#757575" fill-opacity="1.000000" fill-rule="nonzero"/>
</svg>
