<svg width="22.000000" height="19.000000" viewBox="0 0 22 19" fill="none" xmlns="http://www.w3.org/2000/svg" xmlns:xlink="http://www.w3.org/1999/xlink">
	<desc>
			Created with Pixso.
	</desc>
	<defs/>
	<path id="Vector" d="M10.83 6L14 9.16L14 9C14 8.2 13.68 7.44 13.12 6.87C12.55 6.31 11.79 6 11 6L10.83 6ZM6.53 6.79L8.08 8.35C8.03 8.56 8 8.76 8 9C8 9.79 8.31 10.55 8.87 11.12C9.44 11.68 10.2 12 11 12C11.22 12 11.44 11.97 11.65 11.92L13.2 13.47C12.53 13.8 11.79 14 11 14C9.67 14 8.4 13.47 7.46 12.53C6.52 11.59 6 10.32 6 9C6 8.2 6.2 7.47 6.53 6.79ZM1 1.26L3.28 3.54L3.72 4C2.08 5.29 0.78 7 0 9C1.72 13.39 6 16.5 11 16.5C12.55 16.5 14.03 16.2 15.38 15.66L15.81 16.08L18.73 19L20 17.73L2.27 0L1 1.26ZM11 4C12.32 4 13.59 4.52 14.53 5.46C15.47 6.4 16 7.67 16 9C16 9.64 15.87 10.26 15.64 10.82L18.57 13.75C20.07 12.5 21.27 10.86 22 9C20.27 4.6 16 1.5 11 1.5C9.59 1.5 8.26 1.75 7 2.2L9.16 4.35C9.73 4.13 10.35 4 11 4Z" fill="#757575" fill-opacity="1.000000" fill-rule="nonzero"/>
</svg>
