<svg width="14.000000" height="18.000000" viewBox="0 0 14 18" fill="none" xmlns="http://www.w3.org/2000/svg" xmlns:xlink="http://www.w3.org/1999/xlink">
	<desc>
			Created with Pixso.
	</desc>
	<defs/>
	<path id="Vector" d="M1.61 18C1.17 18 0.79 17.84 0.47 17.52C0.15 17.2 0 16.82 0 16.38L0 7.61C0 7.17 0.15 6.79 0.47 6.47C0.79 6.16 1.17 6 1.61 6L3 6L3 4C3 2.88 3.38 1.94 4.16 1.16C4.94 0.38 5.88 0 7 0C8.11 0 9.05 0.38 9.83 1.16C10.61 1.94 11 2.88 11 4L11 6L12.38 6C12.82 6 13.2 6.15 13.52 6.47C13.84 6.79 13.99 7.17 14 7.61L14 16.38C14 16.82 13.84 17.2 13.52 17.52C13.2 17.84 12.82 17.99 12.38 18L1.61 18ZM7 13.5C7.42 13.5 7.77 13.35 8.06 13.06C8.35 12.77 8.5 12.42 8.5 12C8.5 11.57 8.35 11.22 8.06 10.93C7.77 10.64 7.42 10.5 7 10.5C6.57 10.49 6.22 10.64 5.93 10.93C5.64 11.22 5.5 11.57 5.5 12C5.5 12.42 5.64 12.77 5.93 13.06C6.22 13.35 6.57 13.5 7 13.5ZM4 6L10 6L10 4C10 3.16 9.7 2.45 9.12 1.87C8.54 1.29 7.83 1 7 1C6.16 1 5.45 1.29 4.87 1.87C4.29 2.45 4 3.16 4 4L4 6Z" fill="#757575" fill-opacity="1.000000" fill-rule="nonzero"/>
</svg>
